<svg width="23" height="21" viewBox="0 0 23 21" fill="none" xmlns="http://www.w3.org/2000/svg">
<path d="M14.4136 3.55955H4.46368L5.47275 2.06006C5.60734 1.8617 5.68535 1.63041 5.69838 1.39106C5.71142 1.1517 5.65899 0.91331 5.54674 0.701504C5.43448 0.489698 5.26664 0.312478 5.06125 0.188883C4.85586 0.0652882 4.62067 -1.12428e-05 4.38096 3.49873e-09H4.3782C4.16258 -1.50386e-05 3.94972 0.0484731 3.75538 0.141874C3.56104 0.235274 3.39019 0.371195 3.2555 0.539571L0.150904 4.4209C0.0532192 4.54301 0 4.69473 0 4.8511C0 5.00748 0.0532192 5.15919 0.150904 5.2813L3.25585 9.16237C3.39053 9.33076 3.56137 9.4667 3.75571 9.56012C3.95005 9.65353 4.16292 9.70203 4.37855 9.70203H4.38096C4.62066 9.70203 4.85583 9.63673 5.06121 9.51314C5.26659 9.38955 5.43442 9.21234 5.54667 9.00055C5.65892 8.78875 5.71135 8.55038 5.69833 8.31104C5.6853 8.07169 5.60732 7.84042 5.47275 7.64205L4.46342 6.14205H14.4136C15.9497 6.14205 17.4228 6.75224 18.509 7.8384C19.5951 8.92455 20.2053 10.3977 20.2053 11.9337C20.2053 13.4698 19.5951 14.9429 18.509 16.0291C17.4228 17.1152 15.9497 17.7254 14.4136 17.7254H11.5974C11.255 17.7254 10.9265 17.8615 10.6844 18.1036C10.4422 18.3458 10.3062 18.6742 10.3062 19.0167C10.3062 19.3591 10.4422 19.6876 10.6844 19.9297C10.9265 20.1719 11.255 20.3079 11.5974 20.3079H14.4136C16.6346 20.3079 18.7646 19.4257 20.3351 17.8552C21.9055 16.2847 22.7878 14.1547 22.7878 11.9337C22.7878 9.71277 21.9055 7.58276 20.3351 6.01229C18.7646 4.44183 16.6346 3.55955 14.4136 3.55955Z" fill="#989898"/>
</svg>
