<svg width="22" height="22" viewBox="0 0 22 22" fill="none" xmlns="http://www.w3.org/2000/svg">
<path d="M21.4332 6.92391C20.6792 6.16993 19.4524 6.16997 18.6982 6.92409C18.4663 7.15626 16.9852 8.63849 16.759 8.86495V3.75685C16.759 3.24033 16.5578 2.75475 16.1926 2.38953L14.3695 0.566368C14.0043 0.201108 13.5187 0 13.0021 0H1.93373C0.867471 0 0 0.867471 0 1.93373V20.0678C0 21.1341 0.867471 22.0016 1.93373 22.0016H14.8253C15.8915 22.0016 16.759 21.1341 16.759 20.0678V14.3367L21.4331 9.65864C22.1889 8.90294 22.189 7.6797 21.4332 6.92391ZM12.8916 1.28915C13.0134 1.28915 13.248 1.26805 13.4579 1.47793L15.2811 3.30109C15.4856 3.50568 15.4699 3.72987 15.4699 3.86746H12.8916V1.28915ZM15.4698 20.0678C15.4698 20.4232 15.1807 20.7124 14.8253 20.7124H1.93373C1.57831 20.7124 1.28915 20.4232 1.28915 20.0678V1.93373C1.28915 1.57831 1.57831 1.28915 1.93373 1.28915H11.6024V4.51204C11.6024 4.86802 11.891 5.15661 12.247 5.15661H15.4698V10.1552C15.4698 10.1552 13.5682 12.0585 13.5681 12.0586L12.657 12.9697C12.5862 13.0405 12.5328 13.1268 12.5012 13.2217L11.5896 15.9564C11.5124 16.188 11.5727 16.4434 11.7453 16.616C11.9182 16.7889 12.1737 16.8489 12.405 16.7718L15.1397 15.8602C15.2346 15.8286 15.3209 15.7752 15.3916 15.7045L15.4698 15.6263V20.0678ZM14.0243 13.4255L14.9358 14.3371L14.5876 14.6853L13.2203 15.1411L13.6761 13.7737L14.0243 13.4255ZM15.8472 13.4253L14.9357 12.5138C15.4211 12.028 17.5769 9.87028 18.0341 9.41267L18.9457 10.3242L15.8472 13.4253ZM20.5214 8.74725L19.8569 9.41228L18.9454 8.50072L19.61 7.83548C19.8615 7.58413 20.2703 7.58418 20.5216 7.83548C20.7729 8.08686 20.7742 8.49436 20.5214 8.74725Z" fill="white"/>
<path d="M12.2468 6.44577H3.2227C2.86672 6.44577 2.57812 6.73437 2.57812 7.09035C2.57812 7.44633 2.86672 7.73492 3.2227 7.73492H12.2468C12.6028 7.73492 12.8914 7.44633 12.8914 7.09035C12.8914 6.73437 12.6028 6.44577 12.2468 6.44577Z" fill="white"/>
<path d="M9.66847 9.02408H3.2227C2.86672 9.02408 2.57812 9.31268 2.57812 9.66866C2.57812 10.0246 2.86672 10.3132 3.2227 10.3132H9.66847C10.0244 10.3132 10.313 10.0246 10.313 9.66866C10.313 9.31268 10.0244 9.02408 9.66847 9.02408Z" fill="white"/>
<path d="M9.66847 11.6024H3.2227C2.86672 11.6024 2.57812 11.891 2.57812 12.247C2.57812 12.6029 2.86672 12.8915 3.2227 12.8915H9.66847C10.0244 12.8915 10.313 12.6029 10.313 12.247C10.313 11.891 10.0244 11.6024 9.66847 11.6024Z" fill="white"/>
<path d="M9.66847 14.1807H3.2227C2.86672 14.1807 2.57812 14.4693 2.57812 14.8253C2.57812 15.1812 2.86672 15.4698 3.2227 15.4698H9.66847C10.0244 15.4698 10.313 15.1812 10.313 14.8253C10.313 14.4693 10.0244 14.1807 9.66847 14.1807Z" fill="white"/>
<path d="M12.2469 18.1341H8.37944C8.02346 18.1341 7.73486 18.4227 7.73486 18.7787C7.73486 19.1346 8.02346 19.4232 8.37944 19.4232H12.2469C12.6029 19.4232 12.8915 19.1346 12.8915 18.7787C12.8915 18.4227 12.6029 18.1341 12.2469 18.1341Z" fill="white"/>
</svg>
