<svg width="47" height="47" viewBox="0 0 47 47" fill="none" xmlns="http://www.w3.org/2000/svg">
<path d="M44.0281 4.77443L29.7032 0.420153C28.1132 -0.0601599 26.5 1.12737 26.5 2.79522V44.1932C26.5 45.8561 28.1066 47.0635 29.7164 46.5765L44.0264 42.2272C45.4309 41.7999 46.375 40.5246 46.375 39.0572V7.94284C46.375 6.47706 45.4326 5.2034 44.0281 4.77443ZM43.0625 39.0572L29.8125 43.0852V3.91484L43.0625 7.94284V39.0572Z" fill="#989898"/>
<path d="M14.9062 15.2188C13.9903 15.2188 13.25 14.4768 13.25 13.5625V6.9375C13.25 5.11066 14.7357 3.625 16.5625 3.625H23.1875C24.1034 3.625 24.8438 4.367 24.8438 5.28125C24.8438 6.1955 24.1034 6.9375 23.1875 6.9375H16.5625V13.5625C16.5625 14.4768 15.8222 15.2188 14.9062 15.2188Z" fill="#989898"/>
<path d="M23.1875 43.375H16.5625C14.7357 43.375 13.25 41.8893 13.25 40.0625V33.4375C13.25 32.5216 13.9903 31.7812 14.9062 31.7812C15.8222 31.7812 16.5625 32.5216 16.5625 33.4375V40.0625H23.1875C24.1034 40.0625 24.8438 40.8028 24.8438 41.7188C24.8438 42.6347 24.1034 43.375 23.1875 43.375Z" fill="#989898"/>
<path d="M22.7022 24.671L17.7335 29.6397C17.0859 30.2873 16.0391 30.2873 15.3915 29.6397C14.7439 28.9921 14.7439 27.9454 15.3915 27.2978L17.5331 25.1562H1.65625C0.740344 25.1562 0 24.4142 0 23.5C0 22.5857 0.740344 21.8437 1.65625 21.8437H17.5331L15.3915 19.7022C14.7439 19.0546 14.7439 18.0079 15.3915 17.3603C16.0391 16.7127 17.0859 16.7127 17.7335 17.3603L22.7022 22.329C23.3498 22.9766 23.3498 24.0234 22.7022 24.671Z" fill="#989898"/>
<path d="M33.125 26.8125C32.2091 26.8125 31.4688 26.0722 31.4688 25.1562V21.8438C31.4688 20.9295 32.2091 20.1875 33.125 20.1875C34.0409 20.1875 34.7812 20.9295 34.7812 21.8438V25.1562C34.7812 26.0722 34.0409 26.8125 33.125 26.8125Z" fill="#989898"/>
</svg>
