<svg width="24" height="15" viewBox="0 0 24 15" fill="none" xmlns="http://www.w3.org/2000/svg">
<path d="M12 15C4.14881 15 0.256312 8.1555 0.0945 7.86431C-0.0315 7.63763 -0.0315 7.36219 0.0945 7.1355C0.256312 6.8445 4.14881 0 12 0C19.8512 0 23.7437 6.8445 23.9055 7.13569C24.0315 7.36237 24.0315 7.63781 23.9055 7.8645C23.7437 8.1555 19.8512 15 12 15ZM1.63256 7.49887C2.52469 8.85094 6.02738 13.5 12 13.5C17.9916 13.5 21.4787 8.85469 22.3674 7.50112C21.4753 6.14906 17.9726 1.5 12 1.5C6.00844 1.5 2.52131 6.14531 1.63256 7.49887ZM12 12C9.51863 12 7.5 9.98137 7.5 7.5C7.5 5.01862 9.51863 3 12 3C14.4814 3 16.5 5.01862 16.5 7.5C16.5 9.98137 14.4814 12 12 12ZM12 4.5C10.3459 4.5 9 5.84588 9 7.5C9 9.15413 10.3459 10.5 12 10.5C13.6541 10.5 15 9.15413 15 7.5C15 5.84588 13.6541 4.5 12 4.5Z" fill="#BABBBE"/>
</svg>
