<svg width="60" height="60" viewBox="0 0 60 60" fill="none" xmlns="http://www.w3.org/2000/svg">
<g filter="url(#filter0_d_31_130)">
<circle cx="28" cy="30" r="14" fill="white" stroke="#F57921" stroke-width="1.5"/>
<path d="M34.4467 29.3129C34.3042 29.3129 34.1675 29.3695 34.0668 29.4703C33.966 29.571 33.9094 29.7077 33.9094 29.8501V31.4188L31.0371 28.5465C30.7975 28.3187 30.4795 28.1917 30.1489 28.1917C29.8183 28.1917 29.5003 28.3187 29.2607 28.5465L25.8511 31.9553L25.3067 31.4117C25.0671 31.1839 24.7491 31.0569 24.4185 31.0569C24.0879 31.0569 23.77 31.1839 23.5303 31.4117L22.0906 32.8507V26.985C22.0906 25.8554 22.5726 25.3733 23.7022 25.3733H29.4326C29.5751 25.3733 29.7117 25.3167 29.8125 25.2159C29.9132 25.1152 29.9698 24.9785 29.9698 24.8361C29.9698 24.6936 29.9132 24.5569 29.8125 24.4562C29.7117 24.3554 29.5751 24.2988 29.4326 24.2988H23.7022C23.3393 24.2568 22.9716 24.2973 22.6265 24.4174C22.2815 24.5376 21.9681 24.7341 21.7097 24.9925C21.4514 25.2508 21.2548 25.5642 21.1347 25.9093C21.0146 26.2543 20.9741 26.622 21.0161 26.985V34.1479C20.9741 34.5108 21.0146 34.8786 21.1347 35.2236C21.2548 35.5686 21.4514 35.882 21.7097 36.1404C21.9681 36.3987 22.2815 36.5953 22.6265 36.7154C22.9716 36.8355 23.3393 36.8761 23.7022 36.834H32.2978C32.6607 36.8761 33.0284 36.8355 33.3735 36.7154C33.7185 36.5953 34.0319 36.3987 34.2903 36.1404C34.5486 35.882 34.7452 35.5686 34.8653 35.2236C34.9854 34.8786 35.0259 34.5108 34.9839 34.1479V29.8501C34.9839 29.7077 34.9273 29.571 34.8265 29.4703C34.7258 29.3695 34.5891 29.3129 34.4467 29.3129ZM32.2978 35.7596H23.7022C22.6478 35.7596 22.1636 35.3298 22.1027 34.3578L24.2896 32.1709C24.3039 32.15 24.3232 32.1328 24.3456 32.1209C24.3681 32.1091 24.3931 32.1029 24.4185 32.1029C24.4439 32.1029 24.469 32.1091 24.4914 32.1209C24.5139 32.1328 24.5331 32.15 24.5475 32.1709L25.2201 32.8443C25.3905 33.0053 25.6162 33.0951 25.8508 33.0951C26.0853 33.0951 26.311 33.0053 26.4815 32.8443L30.02 29.3057C30.0343 29.2848 30.0535 29.2676 30.076 29.2557C30.0985 29.2439 30.1235 29.2377 30.1489 29.2377C30.1743 29.2377 30.1993 29.2439 30.2218 29.2557C30.2443 29.2676 30.2635 29.2848 30.2778 29.3057L33.9094 32.9381V34.1479C33.9094 35.2775 33.4274 35.7596 32.2978 35.7596ZM31.9181 25.5738C31.8682 25.524 31.8287 25.4648 31.8016 25.3997C31.7746 25.3346 31.7607 25.2647 31.7607 25.1942C31.7607 25.1237 31.7746 25.0539 31.8016 24.9887C31.8287 24.9236 31.8682 24.8644 31.9181 24.8146L32.9926 23.7401C33.0934 23.6397 33.2299 23.5833 33.3722 23.5833C33.5145 23.5833 33.651 23.6397 33.7519 23.7401L34.8263 24.8146C34.8791 24.8638 34.9214 24.9231 34.9508 24.989C34.9801 25.0549 34.9959 25.126 34.9972 25.1981C34.9985 25.2703 34.9852 25.3419 34.9582 25.4088C34.9312 25.4757 34.891 25.5365 34.8399 25.5875C34.7889 25.6385 34.7282 25.6787 34.6613 25.7057C34.5944 25.7328 34.5227 25.746 34.4506 25.7447C34.3785 25.7435 34.3073 25.7277 34.2414 25.6983C34.1755 25.669 34.1162 25.6266 34.067 25.5738L33.9094 25.417V26.985C33.9094 27.1274 33.8528 27.2641 33.7521 27.3648C33.6513 27.4656 33.5147 27.5222 33.3722 27.5222C33.2297 27.5222 33.0931 27.4656 32.9923 27.3648C32.8916 27.2641 32.835 27.1274 32.835 26.985V25.417L32.6774 25.5738C32.6276 25.6237 32.5684 25.6633 32.5033 25.6903C32.4381 25.7174 32.3683 25.7313 32.2978 25.7313C32.2273 25.7313 32.1574 25.7174 32.0923 25.6903C32.0271 25.6633 31.968 25.6237 31.9181 25.5738ZM25.1348 27.5222C25.3119 27.5222 25.485 27.5747 25.6323 27.6731C25.7795 27.7715 25.8943 27.9113 25.962 28.0749C26.0298 28.2385 26.0475 28.4185 26.013 28.5922C25.9784 28.7659 25.8932 28.9254 25.7679 29.0507C25.6427 29.1759 25.4832 29.2612 25.3095 29.2957C25.1358 29.3303 24.9558 29.3125 24.7922 29.2448C24.6286 29.177 24.4887 29.0622 24.3903 28.915C24.292 28.7677 24.2394 28.5946 24.2394 28.4175C24.2394 28.1801 24.3338 27.9523 24.5017 27.7844C24.6696 27.6165 24.8973 27.5222 25.1348 27.5222Z" fill="#F57921"/>
</g>
<defs>
<filter id="filter0_d_31_130" x="0.25" y="0.25" width="59.5" height="59.5" filterUnits="userSpaceOnUse" color-interpolation-filters="sRGB">
<feFlood flood-opacity="0" result="BackgroundImageFix"/>
<feColorMatrix in="SourceAlpha" type="matrix" values="0 0 0 0 0 0 0 0 0 0 0 0 0 0 0 0 0 0 127 0" result="hardAlpha"/>
<feOffset dx="2"/>
<feGaussianBlur stdDeviation="7.5"/>
<feComposite in2="hardAlpha" operator="out"/>
<feColorMatrix type="matrix" values="0 0 0 0 0 0 0 0 0 0 0 0 0 0 0 0 0 0 0.15 0"/>
<feBlend mode="normal" in2="BackgroundImageFix" result="effect1_dropShadow_31_130"/>
<feBlend mode="normal" in="SourceGraphic" in2="effect1_dropShadow_31_130" result="shape"/>
</filter>
</defs>
</svg>
