<svg width="17" height="25" viewBox="0 0 17 25" fill="none" xmlns="http://www.w3.org/2000/svg">
<path d="M8.49984 11.3334C10.0621 11.3334 11.3332 10.0624 11.3332 8.50005C11.3332 6.93775 10.0621 5.66672 8.49984 5.66672C6.93754 5.66672 5.6665 6.93775 5.6665 8.50005C5.6665 10.0624 6.93754 11.3334 8.49984 11.3334ZM8.49984 7.55561C9.0206 7.55561 9.44428 7.97928 9.44428 8.50005C9.44428 9.02082 9.0206 9.4445 8.49984 9.4445C7.97907 9.4445 7.55539 9.02082 7.55539 8.50005C7.55539 7.97928 7.97907 7.55561 8.49984 7.55561Z" fill="#F97316"/>
<path d="M17 8.5C17 3.8131 13.1869 0 8.5 0C3.8131 0 0 3.8131 0 8.5C0 10.3542 0.586595 12.1163 1.69641 13.5959L6.23248 19.6435C6.76529 20.3538 7.61298 20.7778 8.5 20.7778C9.38702 20.7778 10.2347 20.3538 10.7676 19.6435L15.3036 13.5959C16.4134 12.1163 17 10.3542 17 8.5ZM13.7925 12.4625L9.25655 18.51C9.07588 18.7508 8.80014 18.8889 8.5 18.8889C8.19986 18.8889 7.92412 18.7508 7.7435 18.5101L3.20748 12.4625C2.34487 11.3125 1.88889 9.94221 1.88889 8.5C1.88889 4.85463 4.85463 1.88889 8.5 1.88889C12.1454 1.88889 15.1111 4.85463 15.1111 8.5C15.1111 9.94221 14.6551 11.3125 13.7925 12.4625Z" fill="#F97316"/>
<path d="M13.2223 23.2333C13.2223 22.7117 12.7994 22.2889 12.2778 22.2889H4.72228C4.20066 22.2889 3.77783 22.7117 3.77783 23.2333C3.77783 23.7549 4.20066 24.1778 4.72228 24.1778H12.2778C12.7994 24.1778 13.2223 23.7549 13.2223 23.2333Z" fill="#F97316"/>
</svg>
