<svg width="24" height="19" viewBox="0 0 24 19" fill="none" xmlns="http://www.w3.org/2000/svg">
<path d="M3.87257 16.6085C3.87257 16.9974 3.55735 17.3126 3.16844 17.3126C2.77954 17.3126 2.46432 16.9974 2.46432 16.6085C2.46432 15.6587 2.49013 14.7489 2.54189 13.8898C2.21599 13.9824 1.88365 14.063 1.54627 14.1305C1.16495 14.2068 0.794032 13.9594 0.717741 13.5781C0.641498 13.1968 0.88878 12.8259 1.27009 12.7496C1.74938 12.6537 2.21652 12.5284 2.66549 12.378C2.81712 10.9369 3.05467 9.68564 3.37905 8.68939C4.15458 6.30744 5.54091 5.21379 7.3559 6.12127C9.16914 7.02789 9.22024 8.91978 7.80914 10.6695C6.93308 11.7558 5.58437 12.7139 3.98833 13.3836C3.91152 14.3799 3.87257 15.4627 3.87257 16.6085ZM6.71298 9.78551C7.6242 8.65561 7.60157 7.81845 6.72617 7.38078C5.88332 6.95937 5.26431 7.44767 4.71813 9.12532C4.48342 9.84614 4.29639 10.7344 4.15852 11.7543C5.22692 11.2108 6.11613 10.5256 6.71298 9.78551ZM14.1425 6.74938L20.4795 0.412448C21.0294 -0.137483 21.9211 -0.137483 22.471 0.412448L23.5876 1.52901C24.1375 2.07894 24.1375 2.97057 23.5876 3.52054L17.2506 9.85748C16.9865 10.1216 16.6283 10.2699 16.2548 10.2699H14.4341C14.0453 10.2699 13.73 9.95469 13.73 9.56579V7.7451C13.73 7.37167 13.8784 7.01346 14.1425 6.74938ZM16.2548 8.86171L20.4794 4.6371L19.3628 3.52054L15.1382 7.74515V8.86171H16.2548ZM22.5918 2.52478L21.4752 1.40822L20.3587 2.52478L21.4752 3.64134L22.5918 2.52478ZM7.92301 14.2557C7.66695 14.5484 7.22211 14.578 6.92947 14.322C6.63683 14.0659 6.60713 13.6211 6.86324 13.3284L8.8107 11.1028C9.19481 10.6638 9.86202 10.6193 10.301 11.0034C10.4959 11.174 10.6214 11.4102 10.6535 11.6673L10.7234 12.226L11.1623 11.7627C11.5635 11.3393 12.232 11.3212 12.6554 11.7224C12.7068 11.7711 12.7531 11.8248 12.7937 11.8827L13.3148 12.6257L15.6496 11.9611C16.0237 11.8547 16.4131 12.0715 16.5196 12.4455C16.6261 12.8195 16.4092 13.2091 16.0351 13.3155L13.4596 14.0487C13.0271 14.1718 12.5639 14.0076 12.3057 13.6393L11.8882 13.044L11.2331 13.7355C11.0649 13.913 10.8402 14.0267 10.5974 14.057C10.0186 14.1294 9.49077 13.7189 9.41841 13.14L9.35351 12.6208L7.92301 14.2557ZM20.4191 9.56579C20.4191 9.17694 20.7343 8.86167 21.1232 8.86167C21.5121 8.86167 21.8273 9.17689 21.8273 9.56579V15.9027C21.8273 17.0693 20.8816 18.0151 19.715 18.0151H5.9849C5.59604 18.0151 5.28077 17.6998 5.28077 17.3109C5.28077 16.9221 5.59604 16.6068 5.9849 16.6068H19.7149C20.1038 16.6068 20.4191 16.2916 20.4191 15.9027V9.56579ZM15.1382 1.82065C15.5271 1.82065 15.8424 2.13587 15.8424 2.52478C15.8424 2.91368 15.5271 3.2289 15.1382 3.2289H2.11233C1.72347 3.2289 1.4082 3.54412 1.4082 3.93303V9.56589C1.4082 9.95474 1.09298 10.27 0.704079 10.27C0.315176 10.27 0 9.95469 0 9.56579V3.93298C0 2.76636 0.945712 1.82065 2.11233 1.82065H15.1382Z" fill="#F97316"/>
</svg>
