<svg width="18" height="24" viewBox="0 0 18 24" fill="none" xmlns="http://www.w3.org/2000/svg">
<path d="M9 0C5.25 0 2.25 3 2.25 6.75V9.75C0.975 9.75 0 10.725 0 12V21.75C0 23.025 0.975 24 2.25 24H15.75C17.025 24 18 23.025 18 21.75V12C18 10.725 17.025 9.75 15.75 9.75V6.75C15.75 3 12.75 0 9 0ZM16.5 12V21.75C16.5 22.2 16.2 22.5 15.75 22.5H2.25C1.8 22.5 1.5 22.2 1.5 21.75V12C1.5 11.55 1.8 11.25 2.25 11.25H3H15H15.75C16.2 11.25 16.5 11.55 16.5 12ZM3.75 9.75V6.75C3.75 3.825 6.075 1.5 9 1.5C11.925 1.5 14.25 3.825 14.25 6.75V9.75H3.75Z" fill="#F97316"/>
<path d="M9 13.5C7.725 13.5 6.75 14.475 6.75 15.75C6.75 16.725 7.35 17.55 8.25 17.85V19.5C8.25 19.95 8.55 20.25 9 20.25C9.45 20.25 9.75 19.95 9.75 19.5V17.85C10.65 17.55 11.25 16.725 11.25 15.75C11.25 14.475 10.275 13.5 9 13.5ZM9 16.5C8.55 16.5 8.25 16.2 8.25 15.75C8.25 15.3 8.55 15 9 15C9.45 15 9.75 15.3 9.75 15.75C9.75 16.2 9.45 16.5 9 16.5Z" fill="#F97316"/>
</svg>
