<svg width="24" height="26" viewBox="0 0 24 26" fill="none" xmlns="http://www.w3.org/2000/svg">
<path d="M18.1935 20.8709C17.2903 21.387 16.1291 21.6451 14.8387 21.6451C12.129 21.6451 10.1935 20.3548 8.90322 17.9031H17.1613V14.8064H8.00002C7.87101 14.2903 7.87101 13.7741 7.87101 13.129C7.87101 12.6129 7.87101 12.0967 7.87101 11.8387H17.1613V8.7419H8.6452C9.29032 7.4516 10.0645 6.41932 11.2258 5.64512C12.2581 4.87093 13.5484 4.48383 14.9678 4.48383C16.2581 4.48383 17.5484 4.61285 18.4516 5.12901C19.3548 5.64512 20.3871 6.41932 21.4194 7.58061L24 4.35482C21.6774 1.64514 18.7097 0.225769 14.8387 0.225769C12.2581 0.225769 10.0645 0.999963 8.00002 2.67736C5.93552 4.22575 4.51615 6.29024 3.74196 8.87091H0V11.7096H3.09677C3.09677 11.9677 3.09677 12.4838 3.09677 12.9999C3.09677 13.516 3.09677 14.1612 3.22579 14.6773H0V17.7741H3.99998C4.77417 20.2257 6.19355 22.1611 8.12903 23.5805C10.0645 24.9999 12.3871 25.7742 14.8387 25.7742C18.5806 25.7742 21.5483 24.4839 23.7419 21.6451L21.1612 18.5483C20.129 19.5806 19.0968 20.3548 18.1935 20.8709Z" fill="#F97316"/>
</svg>
