<svg width="29" height="28" viewBox="0 0 29 28" fill="none" xmlns="http://www.w3.org/2000/svg">
<path d="M23.4514 7.79638L18.6636 7.10066L16.5224 2.76221C15.6954 1.08638 13.304 1.08689 12.4773 2.76215L10.3361 7.1006L5.5483 7.79638C3.69882 8.06508 2.96056 10.3395 4.2983 11.6436L7.76279 15.0206L6.94495 19.7889C6.62907 21.6309 8.56386 23.0358 10.2176 22.1667L14.4999 19.9152L18.7823 22.1667C20.4337 23.0348 22.3708 21.6306 22.0549 19.7889L21.2371 15.0206L24.7016 11.6435C26.0396 10.339 25.3001 8.06503 23.4514 7.79638ZM23.3519 10.2592L19.5235 13.9909C19.2957 14.213 19.1918 14.5329 19.2456 14.8465L20.1493 20.1158C20.1947 20.3805 19.9194 20.5803 19.6818 20.4555L14.9496 17.9677C14.6681 17.8197 14.3316 17.8197 14.05 17.9677L9.31786 20.4555C9.08019 20.5804 8.80497 20.3804 8.85034 20.1158L9.7541 14.8465C9.80785 14.5329 9.70392 14.213 9.47611 13.9909L5.64771 10.2592C5.45541 10.0717 5.56059 9.74822 5.8263 9.70953L11.117 8.94075C11.4318 8.89498 11.704 8.69731 11.8448 8.41201L14.2109 3.61777C14.3297 3.37716 14.6699 3.37699 14.7888 3.61783L17.1549 8.41201C17.2957 8.69731 17.5679 8.89504 17.8827 8.94075L23.1734 9.70953C23.4391 9.74822 23.5442 10.0718 23.3519 10.2592Z" fill="#F97316"/>
<path d="M7.63138 1.98971L6.47529 0.398499C6.16139 -0.0333296 5.55692 -0.129166 5.12509 0.184737C4.6932 0.498526 4.59743 1.10305 4.91127 1.53494L6.06736 3.12609C6.38138 3.55814 6.98585 3.65358 7.41757 3.33985C7.84945 3.02612 7.94523 2.42159 7.63138 1.98971Z" fill="#F97316"/>
<path d="M3.79479 16.2493C3.62991 15.7416 3.08458 15.4635 2.57674 15.6287L0.668171 16.2488C0.160444 16.4138 -0.117379 16.9591 0.0475592 17.4669C0.21278 17.9755 0.759023 18.2523 1.26562 18.0875L3.17418 17.4673C3.68197 17.3023 3.95979 16.757 3.79479 16.2493Z" fill="#F97316"/>
<path d="M23.8751 0.184796C23.4433 -0.128994 22.8387 -0.0333277 22.5249 0.398558L21.3688 1.98971C21.0549 2.42159 21.1507 3.02618 21.5826 3.33991C22.0147 3.65381 22.6191 3.55786 22.9328 3.12615L24.0889 1.535C24.4027 1.10311 24.307 0.498529 23.8751 0.184796Z" fill="#F97316"/>
<path d="M28.3319 16.2488L26.4234 15.6287C25.9156 15.4634 25.3703 15.7415 25.2053 16.2493C25.0403 16.757 25.3181 17.3024 25.8259 17.4673L27.7345 18.0875C28.2411 18.2522 28.7873 17.9754 28.9525 17.4669C29.1175 16.9591 28.8397 16.4138 28.3319 16.2488Z" fill="#F97316"/>
<path d="M14.4998 23.7427C13.966 23.7427 13.5332 24.1755 13.5332 24.7094V26.6713C13.5332 27.2051 13.966 27.6379 14.4998 27.6379C15.0337 27.6379 15.4665 27.2051 15.4665 26.6713V24.7094C15.4665 24.1755 15.0337 23.7427 14.4998 23.7427Z" fill="#F97316"/>
</svg>
