<svg width="18" height="18" viewBox="0 0 18 18" fill="none" xmlns="http://www.w3.org/2000/svg">
<path d="M9 0C7.21997 0 5.47991 0.527841 3.99987 1.51677C2.51983 2.50571 1.36628 3.91131 0.685088 5.55585C0.00389957 7.20038 -0.17433 9.00998 0.172936 10.7558C0.520203 12.5016 1.37737 14.1053 2.63604 15.364C3.89471 16.6226 5.49836 17.4798 7.24419 17.8271C8.99002 18.1743 10.7996 17.9961 12.4442 17.3149C14.0887 16.6337 15.4943 15.4802 16.4832 14.0001C17.4722 12.5201 18 10.78 18 9C17.9968 6.61402 17.0476 4.32667 15.3605 2.63953C13.6733 0.952389 11.386 0.00316208 9 0ZM14.0288 6.52875L8.40375 12.1537C8.33468 12.2238 8.25236 12.2795 8.16159 12.3175C8.07082 12.3554 7.9734 12.375 7.875 12.375C7.7766 12.375 7.67919 12.3554 7.58842 12.3175C7.49764 12.2795 7.41533 12.2238 7.34625 12.1537L4.72125 9.52875C4.58102 9.38851 4.50224 9.19832 4.50224 9C4.50224 8.80168 4.58102 8.61148 4.72125 8.47125C4.86149 8.33101 5.05168 8.25223 5.25 8.25223C5.44832 8.25223 5.63852 8.33101 5.77875 8.47125L7.875 10.5637L12.9713 5.47125C13.1115 5.33102 13.3017 5.25223 13.5 5.25223C13.6983 5.25223 13.8885 5.33102 14.0288 5.47125C14.169 5.61148 14.2478 5.80168 14.2478 6C14.2478 6.19832 14.169 6.38851 14.0288 6.52875Z" fill="#88C941"/>
<path d="M14.029 6.52874L8.40396 12.1537C8.33488 12.2238 8.25257 12.2795 8.16179 12.3174C8.07102 12.3554 7.9736 12.375 7.87521 12.375C7.77681 12.375 7.67939 12.3554 7.58862 12.3174C7.49785 12.2795 7.41553 12.2238 7.34646 12.1537L4.72146 9.52874C4.58122 9.38851 4.50244 9.19831 4.50244 8.99999C4.50244 8.80167 4.58122 8.61148 4.72146 8.47124C4.86169 8.33101 5.05189 8.25223 5.25021 8.25223C5.44853 8.25223 5.63872 8.33101 5.77896 8.47124L7.87521 10.5637L12.9715 5.47124C13.1117 5.33101 13.3019 5.25223 13.5002 5.25223C13.6985 5.25223 13.8887 5.33101 14.029 5.47124C14.1692 5.61148 14.248 5.80167 14.248 5.99999C14.248 6.19831 14.1692 6.38851 14.029 6.52874Z" fill="white"/>
</svg>
