<svg width="21" height="19" viewBox="0 0 21 19" fill="none" xmlns="http://www.w3.org/2000/svg">
<path d="M10.4998 3.79999C9.95689 3.79999 9.51758 4.22489 9.51758 4.74999V9.49999C9.51758 9.75233 9.62117 9.99354 9.80534 10.1717L12.752 13.0217C12.9438 13.2072 13.1951 13.3 13.4464 13.3C13.6978 13.3 13.9491 13.2072 14.1409 13.0217C14.5246 12.6506 14.5246 12.0494 14.1409 11.6783L11.482 9.10663V4.74999C11.482 4.22489 11.0427 3.79999 10.4998 3.79999Z" fill="#F97316"/>
<path d="M19.3399 8.55C18.7969 8.55 18.3576 8.9749 18.3576 9.5C18.3576 13.6906 14.8326 17.1 10.4999 17.1C6.16721 17.1 2.64217 13.6906 2.64217 9.5C2.64217 5.30942 6.16721 1.9 10.4999 1.9C12.9161 1.9 15.1328 2.97153 16.6061 4.75H14.4288C13.8859 4.75 13.4466 5.1749 13.4466 5.7C13.4466 6.2251 13.8859 6.65 14.4288 6.65H18.3576C18.9005 6.65 19.3399 6.2251 19.3399 5.7V1.9C19.3399 1.3749 18.9005 0.95 18.3576 0.95C17.8147 0.95 17.3754 1.3749 17.3754 1.9V2.74238C15.5702 1.0168 13.1291 0 10.4999 0C5.08428 0 0.677734 4.26201 0.677734 9.5C0.677734 14.738 5.08428 19 10.4999 19C15.9155 19 20.3221 14.738 20.3221 9.5C20.3221 8.9749 19.8828 8.55 19.3399 8.55Z" fill="#F97316"/>
</svg>
