<svg width="63" height="70" viewBox="0 0 63 70" fill="none" xmlns="http://www.w3.org/2000/svg">
<path d="M47.2015 29.9811V16.8743C47.2015 16.4991 47.0282 16.1525 46.783 15.8783L32.0884 0.447551C31.8141 0.159047 31.4242 0 31.0348 0H7.73676C3.43563 0 0 3.50749 0 7.80915V51.8641C0 56.1658 3.43563 59.6157 7.73676 59.6157H26.127C29.6054 65.3894 35.9282 69.2578 43.1308 69.2578C54.0723 69.2578 63.0074 60.366 63.0074 49.4102C63.0222 39.8399 56.151 31.8432 47.2015 29.9811ZM32.4783 5.06678L42.3371 15.445H35.9425C34.0371 15.445 32.4783 13.872 32.4783 11.9666V5.06678ZM7.73676 56.7285C5.03772 56.7285 2.88715 54.5631 2.88715 51.8641V7.80915C2.88715 5.09531 5.03772 2.88715 7.73676 2.88715H29.5912V11.9666C29.5912 15.4741 32.435 18.3321 35.9425 18.3321H44.3144V29.6055C43.8816 29.5912 43.535 29.5479 43.1598 29.5479C38.1221 29.5479 33.4886 31.4823 29.9954 34.5137H11.6633C10.8691 34.5137 10.2197 35.1631 10.2197 35.9568C10.2197 36.7509 10.8691 37.4003 11.6633 37.4003H27.3106C26.2855 38.8439 25.4338 40.2875 24.7701 41.8753H11.6633C10.8691 41.8753 10.2197 42.5247 10.2197 43.3189C10.2197 44.1125 10.8691 44.7625 11.6633 44.7625H23.8317C23.4708 46.206 23.2832 47.8081 23.2832 49.4102C23.2832 52.0084 23.7883 54.5779 24.6977 56.7433H7.73676V56.7285ZM43.1456 66.3855C33.7919 66.3855 26.1846 58.7782 26.1846 49.4245C26.1846 40.0708 33.7771 32.4635 43.1456 32.4635C52.5135 32.4635 60.106 40.0708 60.106 49.4245C60.106 58.7782 52.4992 66.3855 43.1456 66.3855Z" fill="#989898"/>
<path d="M11.6633 30.1687H26.2856C27.0798 30.1687 27.7292 29.5188 27.7292 28.7251C27.7292 27.931 27.0798 27.2816 26.2856 27.2816H11.6633C10.8691 27.2816 10.2197 27.931 10.2197 28.7251C10.2197 29.5188 10.8691 30.1687 11.6633 30.1687Z" fill="#989898"/>
<path d="M44.1698 38.7715C43.8956 38.483 43.5204 38.3097 43.1162 38.3097C42.712 38.3097 42.3368 38.483 42.0626 38.7715L33.6035 47.8509C33.055 48.4285 33.0983 49.3521 33.6759 49.8863C34.2534 50.4348 35.1913 50.3914 35.7398 49.8144L41.7159 43.4198V59.1824C41.7159 59.9765 42.3653 60.6259 43.1595 60.6259C43.9532 60.6259 44.6031 59.9765 44.6031 59.1824V43.4198L50.5354 49.8144C50.8244 50.1172 51.1996 50.2763 51.5895 50.2763C51.9356 50.2763 52.2822 50.1463 52.5708 49.8863C53.1483 49.3378 53.1916 48.4285 52.6431 47.8509L44.1698 38.7715Z" fill="#989898"/>
</svg>
